# xmcd
#
# Track frame offsets: 
#        150
#        11930
#        25376
#        36432
#        53602
#        65178
#        85406
#        88229
#        101987
#        111603
#        128051
#        141309
#        157085
#
# Disc length: 2352 seconds
#
# Revision: 0
# Processed by: cddbd v1.5.2PL0 Copyright (c) Steve Scherf et al.
# Submitted via: ExactAudioCopy v0.99pb5
#
DISCID=c9092e0d
DTITLE=The Okee Dokee Brothers - Take It Outside
DYEAR=2010
DGENRE=Bluegrass
TTITLE0=Bluegrass for Breakfast
TTITLE1=Neighbors
TTITLE2=Tippy Toes
TTITLE3=Hero
TTITLE4=Wash Your Face
TTITLE5=Lucy and Tighty
TTITLE6=Water Balloon
TTITLE7=Antidisestablishmentarianism
TTITLE8=Auctioneer
TTITLE9=What We Got
TTITLE10=The Naked Truth
TTITLE11=The Extraterrestrials
TTITLE12=Sweet Dreams
EXTD=
EXTT0=
EXTT1=
EXTT2=
EXTT3=
EXTT4=
EXTT5=
EXTT6=
EXTT7=
EXTT8=
EXTT9=
EXTT10=
EXTT11=
EXTT12=
PLAYORDER=
